<svg id="visual" viewBox="0 0 900 600" width="900" height="600" xmlns="http://www.w3.org/2000/svg" xmlns:xlink="http://www.w3.org/1999/xlink" version="1.1"><g transform="translate(404.67971139184067 292.161482045003)"><path d="M157.7 -178.1C206.9 -146.6 251.2 -99.3 245.7 -54.5C240.3 -9.7 185.1 32.6 149.2 78.1C113.4 123.6 96.9 172.2 59.6 202.8C22.2 233.4 -35.9 245.9 -72.3 222.3C-108.6 198.8 -123.2 139.1 -135.5 91.1C-147.9 43.1 -158.2 6.7 -154.9 -30C-151.7 -66.8 -135 -103.9 -106.9 -139.1C-78.8 -174.3 -39.4 -207.7 7.4 -216.5C54.2 -225.3 108.4 -209.5 157.7 -178.1" fill="#71faca"></path></g></svg>