<svg id="visual" viewBox="0 0 900 600" width="900" height="600" xmlns="http://www.w3.org/2000/svg" xmlns:xlink="http://www.w3.org/1999/xlink" version="1.1"><g transform="translate(453.55307283106504 355.85757592478865)"><path d="M113.9 -216.6C138.4 -183.1 142.8 -134 156 -95.3C169.1 -56.7 191.1 -28.3 208.5 10.1C226 48.5 239 97 216.2 118.9C193.3 140.9 134.7 136.3 92.7 137C50.7 137.8 25.3 143.9 -4.3 151.4C-34 158.9 -68 167.8 -93.5 157.5C-119.1 147.3 -136.2 117.9 -154.7 88.4C-173.2 59 -193.1 29.5 -210.4 -10C-227.7 -49.5 -242.5 -99 -232 -142.3C-221.5 -185.6 -185.7 -222.7 -142.9 -245.6C-100 -268.5 -50 -277.3 -2.7 -272.7C44.7 -268 89.3 -250.1 113.9 -216.6" fill="#71faca"></path></g></svg>