<svg id="visual" viewBox="0 0 900 600" width="900" height="600" xmlns="http://www.w3.org/2000/svg" xmlns:xlink="http://www.w3.org/1999/xlink" version="1.1"><path d="M0 376L21.5 373.5C43 371 86 366 128.8 361.8C171.7 357.7 214.3 354.3 257.2 358.2C300 362 343 373 385.8 382.8C428.7 392.7 471.3 401.3 514.2 397C557 392.7 600 375.3 642.8 374.8C685.7 374.3 728.3 390.7 771.2 392.7C814 394.7 857 382.3 878.5 376.2L900 370L900 601L878.5 601C857 601 814 601 771.2 601C728.3 601 685.7 601 642.8 601C600 601 557 601 514.2 601C471.3 601 428.7 601 385.8 601C343 601 300 601 257.2 601C214.3 601 171.7 601 128.8 601C86 601 43 601 21.5 601L0 601Z" fill="#385a93"></path><path d="M0 461L21.5 452.3C43 443.7 86 426.3 128.8 417.8C171.7 409.3 214.3 409.7 257.2 419.3C300 429 343 448 385.8 451.2C428.7 454.3 471.3 441.7 514.2 432C557 422.3 600 415.7 642.8 419.5C685.7 423.3 728.3 437.7 771.2 441.7C814 445.7 857 439.3 878.5 436.2L900 433L900 601L878.5 601C857 601 814 601 771.2 601C728.3 601 685.7 601 642.8 601C600 601 557 601 514.2 601C471.3 601 428.7 601 385.8 601C343 601 300 601 257.2 601C214.3 601 171.7 601 128.8 601C86 601 43 601 21.5 601L0 601Z" fill="#1883b7"></path><path d="M0 467L21.5 474C43 481 86 495 128.8 490.7C171.7 486.3 214.3 463.7 257.2 458.2C300 452.7 343 464.3 385.8 475.8C428.7 487.3 471.3 498.7 514.2 502.3C557 506 600 502 642.8 493C685.7 484 728.3 470 771.2 463.7C814 457.3 857 458.7 878.5 459.3L900 460L900 601L878.5 601C857 601 814 601 771.2 601C728.3 601 685.7 601 642.8 601C600 601 557 601 514.2 601C471.3 601 428.7 601 385.8 601C343 601 300 601 257.2 601C214.3 601 171.7 601 128.8 601C86 601 43 601 21.5 601L0 601Z" fill="#00adcf"></path><path d="M0 529L21.5 526.2C43 523.3 86 517.7 128.8 512C171.7 506.3 214.3 500.7 257.2 504.8C300 509 343 523 385.8 530C428.7 537 471.3 537 514.2 531.2C557 525.3 600 513.7 642.8 513.2C685.7 512.7 728.3 523.3 771.2 526.7C814 530 857 526 878.5 524L900 522L900 601L878.5 601C857 601 814 601 771.2 601C728.3 601 685.7 601 642.8 601C600 601 557 601 514.2 601C471.3 601 428.7 601 385.8 601C343 601 300 601 257.2 601C214.3 601 171.7 601 128.8 601C86 601 43 601 21.5 601L0 601Z" fill="#01d5d6"></path><path d="M0 566L21.5 565.7C43 565.3 86 564.7 128.8 559C171.7 553.3 214.3 542.7 257.2 540.2C300 537.7 343 543.3 385.8 543.7C428.7 544 471.3 539 514.2 537.3C557 535.7 600 537.3 642.8 543.7C685.7 550 728.3 561 771.2 565.7C814 570.3 857 568.7 878.5 567.8L900 567L900 601L878.5 601C857 601 814 601 771.2 601C728.3 601 685.7 601 642.8 601C600 601 557 601 514.2 601C471.3 601 428.7 601 385.8 601C343 601 300 601 257.2 601C214.3 601 171.7 601 128.8 601C86 601 43 601 21.5 601L0 601Z" fill="#71faca"></path></svg>