<?xml version="1.0" encoding="UTF-8" standalone="no" ?>
<!DOCTYPE svg PUBLIC "-//W3C//DTD SVG 1.1//EN" "http://www.w3.org/Graphics/SVG/1.1/DTD/svg11.dtd">
<svg xmlns="http://www.w3.org/2000/svg" xmlns:xlink="http://www.w3.org/1999/xlink" version="1.1" width="1080" height="1080" viewBox="0 0 1080 1080" xml:space="preserve">
<desc>Created with Fabric.js 5.2.4</desc>
<defs>
</defs>
<rect x="0" y="0" width="100%" height="100%" fill="transparent"></rect>
<g transform="matrix(1 0 0 1 540 540)" id="ca3f7341-b893-431a-b992-d20d6875d00a"  >
<rect style="stroke: none; stroke-width: 1; stroke-dasharray: none; stroke-linecap: butt; stroke-dashoffset: 0; stroke-linejoin: miter; stroke-miterlimit: 4; fill: rgb(255,255,255); fill-rule: nonzero; opacity: 1; visibility: hidden;" vector-effect="non-scaling-stroke"  x="-540" y="-540" rx="0" ry="0" width="1080" height="1080" />
</g>
<g transform="matrix(0 0 0 0 0 0)" id="19e020df-3674-407c-9c3a-28df3a266f93"  >
</g>
<g transform="matrix(0.78 0 0 -0.78 726.99 405.49)"  >
<path style="stroke: none; stroke-width: 1; stroke-dasharray: none; stroke-linecap: butt; stroke-dashoffset: 0; stroke-linejoin: miter; stroke-miterlimit: 4; fill: rgb(56,90,147); fill-rule: nonzero; opacity: 1;" vector-effect="non-scaling-stroke"  transform=" translate(-3089.16, -1543.4)" d="M 2949 1779 L 2922 1769 L 2956 1719 C 2999 1654 3013 1601 3008 1520 C 3003 1453 2976 1385 2937 1343 L 2917 1321 L 2946 1309 C 2995 1290 3094 1304 3148 1337 C 3239 1393 3284 1522 3250 1625 C 3234 1673 3177 1736 3126 1762 C 3080 1785 2987 1794 2949 1779 z" stroke-linecap="round" />
</g>
<g transform="matrix(0.78 0 0 -0.78 349.23 674.71)"  >
<path style="stroke: none; stroke-width: 1; stroke-dasharray: none; stroke-linecap: butt; stroke-dashoffset: 0; stroke-linejoin: miter; stroke-miterlimit: 4; fill: rgb(56,90,147); fill-rule: nonzero; opacity: 1;" vector-effect="non-scaling-stroke"  transform=" translate(-2616.11, -1217.36)" d="M 2586 1440 C 2529 1411 2501 1382 2474 1325 C 2381 1127 2560 924 2772 986 C 2788 991 2787 995 2764 1025 C 2680 1135 2679 1293 2760 1403 C 2788 1441 2789 1445 2773 1452 C 2735 1467 2626 1460 2586 1440 z" stroke-linecap="round" />
</g>
<g transform="matrix(0.78 0 0 -0.78 666.64 710.98)"  >
<path style="stroke: none; stroke-width: 1; stroke-dasharray: none; stroke-linecap: butt; stroke-dashoffset: 0; stroke-linejoin: miter; stroke-miterlimit: 4; fill: rgb(56,90,147); fill-rule: nonzero; opacity: 1;" vector-effect="non-scaling-stroke"  transform=" translate(-3015.33, -1140.8)" d="M 2785 1300 C 2782 1295 2777 1268 2773 1242 C 2759 1117 2855 997 2987 975 C 3083 960 3195 1022 3241 1116 C 3258 1152 3261 1174 3258 1230 C 3256 1268 3251 1302 3248 1306 C 3244 1309 3228 1303 3211 1291 C 3098 1210 2935 1208 2834 1285 C 2797 1313 2794 1314 2785 1300 z" stroke-linecap="round" />
</g>
<g transform="matrix(0 0 0 0 593.75 0)"  >
<g style=""   >
</g>
</g>
<g transform="matrix(0 0 0 0 593.75 0)"  >
<g style=""   >
</g>
</g>
<g transform="matrix(0 0 0 0 593.75 0)"  >
<g style=""   >
</g>
</g>
<g transform="matrix(0 0 0 0 593.75 0)"  >
<g style=""   >
</g>
</g>
<g transform="matrix(0 0 0 0 593.75 0)"  >
<g style=""   >
</g>
</g>
<g transform="matrix(0 0 0 0 593.75 0)"  >
<g style=""   >
</g>
</g>
<g transform="matrix(0 -0.78 -0.78 0 411.09 352.09)"  >
<path style="stroke: none; stroke-width: 1; stroke-dasharray: none; stroke-linecap: butt; stroke-dashoffset: 0; stroke-linejoin: miter; stroke-miterlimit: 4; fill: rgb(56,90,147); fill-rule: nonzero; opacity: 1;" vector-effect="non-scaling-stroke"  transform=" translate(-3089.16, -1543.4)" d="M 2949 1779 L 2922 1769 L 2956 1719 C 2999 1654 3013 1601 3008 1520 C 3003 1453 2976 1385 2937 1343 L 2917 1321 L 2946 1309 C 2995 1290 3094 1304 3148 1337 C 3239 1393 3284 1522 3250 1625 C 3234 1673 3177 1736 3126 1762 C 3080 1785 2987 1794 2949 1779 z" stroke-linecap="round" />
</g>
<g transform="matrix(0 0 0 0 0 0)"  >
<g style=""   >
</g>
</g>
<g transform="matrix(0 0 0 0 0 0)"  >
<g style=""   >
</g>
</g>
</svg>