<svg id="visual" viewBox="0 0 900 450" width="900" height="450" xmlns="http://www.w3.org/2000/svg" xmlns:xlink="http://www.w3.org/1999/xlink" version="1.1"><path d="M0 299L21.5 302.8C43 306.7 86 314.3 128.8 318C171.7 321.7 214.3 321.3 257.2 320.3C300 319.3 343 317.7 385.8 312C428.7 306.3 471.3 296.7 514.2 301C557 305.3 600 323.7 642.8 328.3C685.7 333 728.3 324 771.2 318C814 312 857 309 878.5 307.5L900 306L900 451L878.5 451C857 451 814 451 771.2 451C728.3 451 685.7 451 642.8 451C600 451 557 451 514.2 451C471.3 451 428.7 451 385.8 451C343 451 300 451 257.2 451C214.3 451 171.7 451 128.8 451C86 451 43 451 21.5 451L0 451Z" fill="#385a93"></path><path d="M0 324L21.5 327.3C43 330.7 86 337.3 128.8 346C171.7 354.7 214.3 365.3 257.2 364.5C300 363.7 343 351.3 385.8 344.5C428.7 337.7 471.3 336.3 514.2 336.2C557 336 600 337 642.8 340.3C685.7 343.7 728.3 349.3 771.2 352.2C814 355 857 355 878.5 355L900 355L900 451L878.5 451C857 451 814 451 771.2 451C728.3 451 685.7 451 642.8 451C600 451 557 451 514.2 451C471.3 451 428.7 451 385.8 451C343 451 300 451 257.2 451C214.3 451 171.7 451 128.8 451C86 451 43 451 21.5 451L0 451Z" fill="#00adcf"></path><path d="M0 394L21.5 396.5C43 399 86 404 128.8 403.5C171.7 403 214.3 397 257.2 394C300 391 343 391 385.8 390C428.7 389 471.3 387 514.2 385C557 383 600 381 642.8 383.8C685.7 386.7 728.3 394.3 771.2 399.7C814 405 857 408 878.5 409.5L900 411L900 451L878.5 451C857 451 814 451 771.2 451C728.3 451 685.7 451 642.8 451C600 451 557 451 514.2 451C471.3 451 428.7 451 385.8 451C343 451 300 451 257.2 451C214.3 451 171.7 451 128.8 451C86 451 43 451 21.5 451L0 451Z" fill="#71faca"></path></svg>