<svg id="visual" viewBox="0 0 540 960" width="540" height="960" xmlns="http://www.w3.org/2000/svg" xmlns:xlink="http://www.w3.org/1999/xlink" version="1.1"><rect x="0" y="0" width="540" height="960" fill="#001220"></rect><path d="M0 568L12.8 573.2C25.7 578.3 51.3 588.7 77 606.5C102.7 624.3 128.3 649.7 154 660C179.7 670.3 205.3 665.7 231.2 665C257 664.3 283 667.7 308.8 662.3C334.7 657 360.3 643 386 638C411.7 633 437.3 637 463 642C488.7 647 514.3 653 527.2 656L540 659L540 961L527.2 961C514.3 961 488.7 961 463 961C437.3 961 411.7 961 386 961C360.3 961 334.7 961 308.8 961C283 961 257 961 231.2 961C205.3 961 179.7 961 154 961C128.3 961 102.7 961 77 961C51.3 961 25.7 961 12.8 961L0 961Z" fill="#fa7268"></path><path d="M0 646L12.8 652.8C25.7 659.7 51.3 673.3 77 692.3C102.7 711.3 128.3 735.7 154 744.5C179.7 753.3 205.3 746.7 231.2 746.3C257 746 283 752 308.8 745C334.7 738 360.3 718 386 716.5C411.7 715 437.3 732 463 736.8C488.7 741.7 514.3 734.3 527.2 730.7L540 727L540 961L527.2 961C514.3 961 488.7 961 463 961C437.3 961 411.7 961 386 961C360.3 961 334.7 961 308.8 961C283 961 257 961 231.2 961C205.3 961 179.7 961 154 961C128.3 961 102.7 961 77 961C51.3 961 25.7 961 12.8 961L0 961Z" fill="#ef5f67"></path><path d="M0 803L12.8 795.8C25.7 788.7 51.3 774.3 77 765.3C102.7 756.3 128.3 752.7 154 746.5C179.7 740.3 205.3 731.7 231.2 730.7C257 729.7 283 736.3 308.8 735.8C334.7 735.3 360.3 727.7 386 726.2C411.7 724.7 437.3 729.3 463 745.5C488.7 761.7 514.3 789.3 527.2 803.2L540 817L540 961L527.2 961C514.3 961 488.7 961 463 961C437.3 961 411.7 961 386 961C360.3 961 334.7 961 308.8 961C283 961 257 961 231.2 961C205.3 961 179.7 961 154 961C128.3 961 102.7 961 77 961C51.3 961 25.7 961 12.8 961L0 961Z" fill="#e34c67"></path><path d="M0 810L12.8 804.7C25.7 799.3 51.3 788.7 77 787.2C102.7 785.7 128.3 793.3 154 802C179.7 810.7 205.3 820.3 231.2 826.7C257 833 283 836 308.8 838.3C334.7 840.7 360.3 842.3 386 838.3C411.7 834.3 437.3 824.7 463 821.3C488.7 818 514.3 821 527.2 822.5L540 824L540 961L527.2 961C514.3 961 488.7 961 463 961C437.3 961 411.7 961 386 961C360.3 961 334.7 961 308.8 961C283 961 257 961 231.2 961C205.3 961 179.7 961 154 961C128.3 961 102.7 961 77 961C51.3 961 25.7 961 12.8 961L0 961Z" fill="#d53867"></path><path d="M0 899L12.8 902.2C25.7 905.3 51.3 911.7 77 910C102.7 908.3 128.3 898.7 154 895C179.7 891.3 205.3 893.7 231.2 889.8C257 886 283 876 308.8 869.7C334.7 863.3 360.3 860.7 386 865.7C411.7 870.7 437.3 883.3 463 884.3C488.7 885.3 514.3 874.7 527.2 869.3L540 864L540 961L527.2 961C514.3 961 488.7 961 463 961C437.3 961 411.7 961 386 961C360.3 961 334.7 961 308.8 961C283 961 257 961 231.2 961C205.3 961 179.7 961 154 961C128.3 961 102.7 961 77 961C51.3 961 25.7 961 12.8 961L0 961Z" fill="#c62368"></path></svg>